<svg width="61" height="61" viewBox="0 0 61 61" fill="none" xmlns="http://www.w3.org/2000/svg">
<circle cx="30.5" cy="30.5" r="29.5" stroke="#BE3A6F" stroke-width="2"/>
<path d="M29.834 11.0063C29.2537 11.0222 28.6811 11.0697 28.1086 11.1567C27.2616 11.2423 26.4146 11.6714 25.4813 12.0989C24.2938 12.6119 23.1049 13.1265 22.0022 13.212C20.1356 13.8105 19.5427 14.6672 19.0344 15.3512C19.0344 15.4367 18.9497 15.5222 18.9497 15.5222C18.2705 16.8918 18.1858 18.2615 18.4399 19.6311C18.6941 20.4877 19.0329 21.2604 19.287 22.03C19.883 23.6577 20.4759 25.1968 20.7301 26.9955C20.9857 27.5101 21.2383 28.1942 21.4077 28.8798C21.8312 30.2494 22.2578 31.7901 23.53 32.9887L23.5394 32.984C23.566 33.014 23.5864 33.0473 23.6147 33.0742L23.6476 33.0584L23.6162 32.1337C24.6327 30.5914 26.0726 29.5638 28.1086 29.1363C28.9243 28.9621 29.8042 28.8988 30.7171 28.9336C31.6675 28.9595 32.6126 29.0847 33.5374 29.3073C35.8275 29.9058 37.6079 31.106 37.6941 32.1337C37.7365 32.6942 37.7569 33.2341 37.7443 33.7741C37.7443 33.8754 37.7381 33.9767 37.7333 34.0797L37.9467 34.1873C38.0751 34.1124 38.1855 34.0097 38.2698 33.8865L38.2745 33.8817L38.2839 33.8691C38.3467 33.7836 38.4016 33.6727 38.4565 33.5619C38.4878 33.5033 38.5161 33.4257 38.5443 33.3576C38.8659 32.6261 39.1121 31.532 39.3882 30.2494C39.4729 29.8219 39.5607 29.4783 39.6439 29.1363C40.3231 27.5956 41.2548 26.226 42.1881 24.9403C43.7143 22.8027 45.1558 20.8313 44.9864 18.5196C42.1881 13.0394 38.2855 12.1828 36.2495 11.7553C35.9107 11.6698 35.7428 11.6698 35.4887 11.5843C33.39 11.1979 31.5767 10.9572 29.834 11.0063ZM37.7443 33.7741C37.7533 33.2547 37.7365 32.7352 37.6941 32.2176C37.6094 31.1045 35.8275 29.9058 33.4527 29.3073C32.5542 29.0979 31.6385 28.9728 30.7171 28.9336C29.8991 28.9059 29.0806 28.9739 28.278 29.1363C26.3267 29.5638 24.8021 30.593 23.8688 32.1321L23.9488 34.3979C24.995 33.8358 26.6671 33.014 28.8741 32.8145C28.976 32.8066 29.0874 32.8066 29.1941 32.8003C29.3776 32.7797 29.6113 32.7306 29.8905 32.7306C32.4112 32.7306 35.0166 33.5761 37.5404 35.3401C37.6016 34.9062 37.6345 34.4708 37.6502 34.0369L37.7208 34.0733C37.7239 33.9736 37.7428 33.8722 37.7443 33.7725V33.7741ZM29.8325 11.0918C30.027 11.0855 30.2309 11.1077 30.427 11.1092C30.0662 11.1061 29.707 11.114 29.3493 11.1346C29.5109 11.1251 29.6709 11.0966 29.8325 11.0918ZM28.5525 11.2058C28.4333 11.2201 28.3125 11.2264 28.1933 11.2438C26.9118 11.4291 25.4107 12.3538 23.8797 12.8985C24.4366 12.6895 24.9997 12.4298 25.566 12.186C26.413 11.7584 27.3463 11.3293 28.1086 11.2438C28.2561 11.2217 28.4051 11.2233 28.5525 11.2058ZM28.1933 11.5859C28.4474 11.5859 28.7878 11.5859 29.0419 11.6714C28.8515 11.6274 28.6547 11.6199 28.4615 11.6492C28.6309 11.6618 28.7977 11.6981 28.9572 11.7569C29.867 13.3403 28.289 20.1156 27.8921 24.66C28.1368 26.2862 28.3847 27.8205 28.6184 28.9669C27.5157 26.1421 26.413 21.1749 26.242 17.3225C26.1573 15.7819 26.2436 14.4106 26.584 13.3846C26.9212 12.3538 27.431 11.6698 28.1917 11.5843L28.1933 11.5859ZM33.1123 12.0134C31.8418 15.3543 31.6724 21.688 31.5877 23.6577C31.503 24.5128 31.5877 26.397 31.6724 27.7666C31.6724 28.1087 31.7571 28.4507 31.7571 28.7943C31.7571 28.4507 31.6724 28.1942 31.6724 27.8521C30.9932 22.7156 30.1446 16.553 33.1123 12.015V12.0134ZM38.3702 12.6135C37.9467 16.0368 36.1663 17.6645 35.5734 21.0055C35.404 23.6593 35.0636 26.7406 34.9789 29.3944C34.8942 26.7406 34.9789 23.9158 35.4025 21.0894C35.826 18.1791 36.7593 15.2673 38.3702 12.6135ZM22.4194 13.6079C22.7694 13.6038 23.1071 13.7379 23.3605 13.9815L23.3386 13.9705C23.5472 14.1161 23.7558 14.3014 23.955 14.5785C23.635 16.1112 24.355 19.3794 24.0178 21.973C24.137 24.4241 24.1291 27.0082 25.3495 29.0334C23.8123 26.6424 23.5049 23.5896 23.2758 20.7427C23.0986 19.0168 22.9559 17.4223 22.548 16.1461C22.3222 15.6631 22.1261 15.2356 21.9457 14.8445C21.9081 14.7859 21.8767 14.7194 21.8359 14.664C21.6822 14.5027 21.5919 14.2906 21.5818 14.067C21.5818 13.9815 21.6649 13.8105 21.7512 13.8105C21.8359 13.725 22.0037 13.7219 22.0884 13.6364C22.197 13.6153 22.3074 13.6058 22.4178 13.6079H22.4194ZM20.3065 14.5785C20.2124 14.6102 20.1622 14.6434 20.0869 14.6751C20.3646 14.6212 20.6548 14.7289 20.9026 15.1786C20.6077 16.591 21.5865 20.5131 21.5739 23.2603C22.0649 26.1864 22.4367 29.3564 24.0397 31.3594C22.1731 29.2202 21.4108 25.4533 20.8179 22.2849C20.3081 19.8021 19.883 17.6614 19.036 16.9773C18.9513 16.8063 18.8666 16.7192 18.8666 16.5482C18.8666 16.2917 18.8666 15.9481 19.036 15.6061C18.6015 16.61 18.4007 17.6123 18.4556 18.6162C18.3914 17.5793 18.5912 16.543 19.036 15.6061C19.036 15.5206 19.1207 15.5206 19.1207 15.4351C19.1395 15.4098 19.1693 15.3797 19.1897 15.3544C19.2803 15.1965 19.4008 15.0583 19.5442 14.9474C19.6305 14.8508 19.6948 14.7574 19.7936 14.6592C19.7105 14.7479 19.6556 14.8334 19.5834 14.9205C19.6258 14.892 19.665 14.8619 19.7152 14.8382C19.7892 14.7542 19.8805 14.6875 19.9826 14.6427C20.0847 14.5979 20.1952 14.5759 20.3065 14.5785ZM19.7152 14.8382C19.7089 14.8492 19.7026 14.854 19.6964 14.8667L19.7544 14.8192L19.7152 14.8382ZM42.8673 16.6337L42.8594 16.6575C42.919 16.6496 42.9771 16.6306 43.0367 16.6337C42.9786 16.6306 42.9175 16.6496 42.8563 16.6654C41.5026 20.8488 39.8964 25.0321 38.2902 29.2155C38.2893 29.2171 38.2883 29.2187 38.2871 29.2202C38.1506 29.9565 37.92 30.6199 37.44 31.1045C38.1192 30.3333 38.2023 29.2186 38.2871 27.849C38.3718 26.5648 38.3718 25.1952 39.0509 23.824C39.0509 23.74 39.0525 23.6577 39.1341 23.5722L39.1356 23.569C39.2878 23.0101 39.4525 22.4781 39.6329 21.9571C40.2885 19.9145 41.4211 16.9441 42.7904 16.6686C42.8155 16.6591 42.8437 16.6385 42.8688 16.6337H42.8673ZM25.3118 36.6669L24.8036 36.838C25.0577 37.1816 25.2271 37.4396 25.3966 37.5236C25.5771 37.6307 25.7817 37.6896 25.991 37.6946C26.0757 37.6946 26.2436 37.6946 26.3283 37.6091L27.602 37.1816C27.6867 37.1816 27.7714 37.0961 27.8561 37.0961C28.0255 37.0961 28.1102 37.0961 28.2796 37.1816L28.7047 37.6091L29.1282 37.5236C28.9588 37.2671 28.7047 37.0121 28.5353 36.9266C28.3659 36.8411 28.1949 36.7525 27.9408 36.7525H27.7714L26.413 37.2671H26.1604C25.9895 37.2671 25.8216 37.2671 25.7369 37.1816C25.6522 37.0961 25.4813 36.925 25.3118 36.6669ZM21.2398 37.5236C20.8163 37.7801 20.2218 38.2092 19.3732 38.5512C18.5262 38.8932 17.847 39.2368 17.5066 39.5788C17.1694 39.9208 17 40.2629 17 40.6065C17 40.7775 17.0847 40.8645 17.2541 40.9501C17.3388 41.0356 17.5098 41.0356 17.5945 41.1211C18.7819 41.6341 19.9693 42.2326 21.0704 42.8311C21.2414 42.9166 21.4108 43.0892 21.4971 43.1747C21.5818 43.2602 21.6649 43.2602 21.7496 43.2602C21.9206 43.2602 22.1731 43.1763 22.3425 43.0037C22.512 42.8327 22.5982 42.6601 22.5982 42.4891C22.5982 42.3181 22.512 42.2342 22.3425 42.1487C22.3425 42.1487 21.6634 41.8051 20.4759 41.2921C19.838 41.0131 19.2159 40.6986 18.6125 40.3499C18.8666 39.9224 19.3748 39.5788 20.1387 39.2368C20.9857 38.8948 21.5818 38.5512 21.8343 38.2947C21.919 38.2092 21.919 38.1237 21.919 38.0382C21.898 37.9091 21.8389 37.7894 21.7496 37.6946C21.6335 37.5879 21.4831 37.5271 21.3261 37.5236H21.2398ZM38.8815 37.5236C38.7541 37.5448 38.636 37.6044 38.5427 37.6946C38.458 37.8656 38.3718 37.9527 38.3718 38.0382V38.1237C38.6259 38.3802 38.9678 38.5512 39.476 38.7222C39.8995 38.8077 40.3231 38.9803 40.7481 39.0658C41.2564 39.2368 41.5952 39.4933 41.7661 39.8353V39.9224C41.7661 40.0079 41.5952 40.1789 41.2564 40.3499C41.0869 40.4354 40.7466 40.6935 40.3231 41.0356C39.8995 41.2921 39.6439 41.547 39.3898 41.6325C39.0509 41.8051 38.7968 41.9761 38.7121 42.1487C38.6274 42.2342 38.6274 42.3181 38.6274 42.4036C38.6274 42.5746 38.7121 42.5746 38.7968 42.7456C38.8815 42.9166 39.0509 42.9198 39.1356 42.9198C39.2204 42.9198 39.3051 42.8311 39.3898 42.8311C39.8133 42.5746 40.4093 42.2326 41.0869 41.6325C41.8493 41.034 42.4438 40.6065 42.7841 40.3499C43.1229 40.1789 43.2908 40.0063 43.2908 39.7483C43.2908 39.6643 43.2908 39.4933 43.1214 39.4078C42.5285 38.7222 41.6814 38.2963 40.6634 37.9527C40.494 37.8672 40.2399 37.7801 39.7301 37.6946C39.476 37.6091 39.2203 37.5236 39.0509 37.5236H38.8815ZM34.2166 38.8061C33.7931 38.8061 33.4527 38.8948 33.1986 39.1513C32.8598 39.4078 32.7751 39.8353 32.8598 40.3499C32.8598 40.7775 33.0292 41.1195 33.2833 41.4631C33.5374 41.8051 33.8778 41.9777 34.2166 41.9777C34.4707 41.9777 34.6401 41.889 34.8958 41.8035C35.3193 41.547 35.4903 41.1195 35.4903 40.3499C35.4903 39.7498 35.3193 39.3223 35.0652 39.0674C34.8166 38.8926 34.5195 38.8017 34.2166 38.8077V38.8061ZM27.1769 38.8932C26.7534 38.8932 26.4146 38.9803 26.1604 39.2368C25.8201 39.4933 25.7369 39.9208 25.8216 40.4354C25.8216 40.863 25.9895 41.205 26.2451 41.547C26.5008 41.889 26.8381 42.0632 27.1769 42.0632C27.4326 42.0632 27.602 41.9745 27.8561 41.889C28.2796 41.6325 28.449 41.205 28.449 40.4354C28.449 39.7498 28.2796 39.3223 28.0255 39.1529C27.7773 38.9784 27.4808 38.8875 27.1784 38.8932H27.1769ZM27.1769 39.9224C27.4326 39.9224 27.602 40.0934 27.602 40.3499C27.602 40.6065 27.3463 40.7775 27.1784 40.7775C26.9228 40.7775 26.7549 40.6065 26.7549 40.3499C26.7549 40.0934 26.9228 39.9224 27.1784 39.9224H27.1769ZM34.0472 40.0079C34.3013 40.0079 34.4723 40.1774 34.4723 40.4354C34.4723 40.6065 34.3013 40.863 34.0488 40.863C33.7931 40.863 33.6253 40.692 33.6253 40.4354C33.6253 40.1774 33.7931 40.0079 34.0488 40.0079H34.0472ZM29.8074 43.3457L30.0615 43.8588C30.1473 44.0216 30.2622 44.1671 30.4003 44.2879C30.485 44.3734 30.656 44.5444 30.8238 44.5444H30.9948C31.1642 44.5444 31.2473 44.5444 31.332 44.4589C31.4167 44.3734 31.5893 44.3734 31.674 44.2879L31.9265 44.0314C32.0112 43.9459 32.0959 43.8588 32.0959 43.7733C32.1806 43.6878 32.1806 43.6022 32.2653 43.5167C32.2653 43.4312 32.35 43.3457 32.35 43.3457C32.2653 43.5167 32.0959 43.6878 32.0112 43.8588C31.8418 43.9443 31.7587 44.1169 31.5877 44.1169C31.4199 44.2024 31.2489 44.2024 31.0795 44.2024C30.9101 44.2024 30.7407 44.2024 30.656 44.1169C30.4866 44.1169 30.4003 44.0314 30.3156 43.9459L30.0615 43.6878C29.9768 43.6022 29.8921 43.4312 29.8074 43.3457ZM28.449 44.9735C26.6671 44.9735 25.566 47.3708 23.0217 45.23C22.3441 49.426 27.3479 49.768 29.4686 47.9693C30.9116 46.6867 30.485 44.888 28.449 44.9735ZM32.9445 44.9735C30.9101 44.888 30.485 46.6867 31.9281 47.9709C34.0472 49.768 39.0494 49.4244 38.3718 45.23C35.8275 47.3708 34.8111 44.9735 32.9445 44.9735Z" fill="#C8487C"/>
</svg>
