<svg width="294" height="143" viewBox="0 0 294 143" fill="none" xmlns="http://www.w3.org/2000/svg">
<path d="M72.2838 0C96.4988 0 115.808 12.1638 127.741 22.3724L128.161 22.7338L134.957 30.1222L119.956 54.7757L108.852 43.6428C97.2335 33.8312 84.2639 28.4395 72.2838 28.4395C48.1102 28.4395 28.4395 47.5769 28.4395 71.0988C28.4395 94.6206 48.1102 113.758 72.2838 113.758C109.018 113.758 133.986 65.2035 134.235 64.7118C135.68 61.7908 167.343 0 221.591 0C261.448 0 293.875 31.8937 293.875 71.0988C293.875 110.304 261.448 142.198 221.591 142.198C202.069 142.198 182.854 134.43 166.022 119.73L165.66 119.41L158.918 112.075L173.925 87.4219L185.082 98.6081C196.707 108.663 208.995 113.758 221.591 113.758C245.765 113.758 265.435 94.6206 265.435 71.0988C265.435 47.5769 245.765 28.4395 221.591 28.4395C184.857 28.4395 159.889 76.9941 159.64 77.4858C158.195 80.4068 126.532 142.198 72.2838 142.198C32.427 142.198 0 110.304 0 71.0988C0 31.8937 32.427 0 72.2838 0Z" fill="url(#paint0_linear_14_149)"/>
<defs>
<linearGradient id="paint0_linear_14_149" x1="41.875" y1="7.12432e-06" x2="214.875" y2="110.5" gradientUnits="userSpaceOnUse">
<stop stop-color="#BE3A6F"/>
<stop offset="0.467596" stop-color="#BE3A6F"/>
<stop offset="0.474379" stop-color="white"/>
<stop offset="1" stop-color="white"/>
</linearGradient>
</defs>
</svg>
